<svg width="45" height="45" viewBox="0 0 45 45" fill="none" xmlns="http://www.w3.org/2000/svg">
<path d="M1.25 0H20C20.69 0 21.25 0.56 21.25 1.25V20C21.25 20.69 20.69 21.25 20 21.25H1.25C0.56 21.25 0 20.69 0 20V1.25C0 0.56 0.56 0 1.25 0Z" fill="#F15022"/>
<path d="M23.8025 19.9475V1.25C23.8025 0.56 24.3625 0 25.0525 0H43.75C44.44 0 45 0.56 45 1.25V19.9475C45 20.6375 44.44 21.1975 43.75 21.1975H25.0525C24.3612 21.1975 23.8025 20.6388 23.8025 19.9475Z" fill="#7FBA00"/>
<path d="M1.25 23.75H20C20.69 23.75 21.25 24.31 21.25 25V43.75C21.25 44.44 20.69 45 20 45H1.25C0.56 45 0 44.44 0 43.75V25C0 24.31 0.56 23.75 1.25 23.75Z" fill="#01A4EF"/>
<path d="M23.75 43.75V25C23.75 24.31 24.31 23.75 25 23.75H43.75C44.44 23.75 45 24.31 45 25V43.75C45 44.44 44.44 45 43.75 45H25C24.31 45 23.75 44.44 23.75 43.75Z" fill="#FFB901"/>
</svg>
